<svg xmlns="http://www.w3.org/2000/svg" width="93" height="34" viewBox="0 0 93 34" role="img" aria-labelledby="title"><title id="title">GitHub</title><rect x=".5" y=".5" width="92" height="33" rx="6" fill="#141416" stroke="#303035"/><g transform="translate(11 8) scale(.75)"><g fill="#d2ff00"><path d="M12 .297c-6.63 0-12 5.373-12 12 0 5.303 3.438 9.8 8.205 11.385.6.113.82-.258.82-.577 0-.285-.01-1.04-.015-2.04-3.338.724-4.042-1.61-4.042-1.61C4.422 18.07 3.633 17.7 3.633 17.7c-1.087-.744.084-.729.084-.729 1.205.084 1.838 1.236 1.838 1.236 1.07 1.835 2.809 1.305 3.495.998.108-.776.417-1.305.76-1.605-2.665-.3-5.466-1.332-5.466-5.93 0-1.31.465-2.38 1.235-3.22-.135-.303-.54-1.523.105-3.176 0 0 1.005-.322 3.3 1.23.96-.267 1.98-.399 3-.405 1.02.006 2.04.138 3 .405 2.28-1.552 3.285-1.23 3.285-1.23.645 1.653.24 2.873.12 3.176.765.84 1.23 1.91 1.23 3.22 0 4.61-2.805 5.625-5.475 5.92.42.36.81 1.096.81 2.22 0 1.606-.015 2.896-.015 3.286 0 .315.21.69.825.57C20.565 22.092 24 17.592 24 12.297c0-6.627-5.373-12-12-12"/></g></g><path fill="#f4f4f2" d="M41.108 22.182Q40.133 22.182 39.366 21.7595Q38.599 21.337 38.157 20.518Q37.715 19.699 37.715 18.516V16.384Q37.715 14.603000000000002 38.69 13.6605Q39.665 12.718 41.329 12.718Q42.967 12.718 43.851 13.6085Q44.735 14.499 44.735 15.994V16.059H43.344V15.955Q43.344 15.396 43.123000000000005 14.947500000000002Q42.902 14.499 42.46 14.239Q42.018 13.979000000000001 41.329 13.979000000000001Q40.289 13.979000000000001 39.704 14.6095Q39.119 15.24 39.119 16.358V18.542Q39.119 19.647 39.704 20.2905Q40.289 20.934 41.342 20.934Q42.382 20.934 42.863 20.362000000000002Q43.344 19.79 43.344 18.88V18.711H40.9V17.502H44.735V22.0H43.435V21.077H43.227Q43.11 21.324 42.8825 21.584000000000003Q42.655 21.844 42.2325 22.012999999999998Q41.81 22.182 41.108 22.182ZM46.581 22.0V15.591000000000001H47.92V22.0ZM47.257000000000005 14.72Q46.867000000000004 14.72 46.600500000000004 14.4665Q46.334 14.213000000000001 46.334 13.81Q46.334 13.407 46.600500000000004 13.153500000000001Q46.867000000000004 12.9 47.257000000000005 12.9Q47.660000000000004 12.9 47.92 13.153500000000001Q48.18000000000001 13.407 48.18000000000001 13.81Q48.18000000000001 14.213000000000001 47.92 14.4665Q47.660000000000004 14.72 47.257000000000005 14.72ZM52.31400000000001 22.0Q51.729000000000006 22.0 51.3845 21.649Q51.040000000000006 21.298000000000002 51.040000000000006 20.713V16.722H49.272000000000006V15.591000000000001H51.040000000000006V13.472H52.379000000000005V15.591000000000001H54.290000000000006V16.722H52.379000000000005V20.479Q52.379000000000005 20.869 52.74300000000001 20.869H54.08200000000001V22.0ZM55.824000000000005 22.0V12.9H57.22800000000001V16.8H61.050000000000004V12.9H62.45400000000001V22.0H61.050000000000004V18.074H57.22800000000001V22.0ZM66.848 22.117Q66.12 22.117 65.548 21.792Q64.976 21.467 64.65100000000001 20.869Q64.32600000000001 20.271 64.32600000000001 19.439V15.591000000000001H65.665V19.348Q65.665 20.18 66.081 20.5765Q66.497 20.973 67.238 20.973Q68.057 20.973 68.5575 20.420499999999997Q69.058 19.868 69.058 18.828V15.591000000000001H70.397V22.0H69.084V21.038H68.876Q68.694 21.428 68.226 21.7725Q67.75800000000001 22.117 66.848 22.117ZM76.078 22.182Q75.14200000000001 22.182 74.64150000000001 21.844Q74.141 21.506 73.894 21.09H73.686V22.0H72.373V12.9H73.712V16.462H73.92Q74.07600000000001 16.201999999999998 74.33600000000001 15.9615Q74.596 15.721 75.025 15.565000000000001Q75.45400000000001 15.409 76.078 15.409Q76.884 15.409 77.56 15.799Q78.236 16.189 78.63900000000001 16.93Q79.042 17.671 79.042 18.698V18.893Q79.042 19.933 78.6325 20.6675Q78.223 21.402 77.5535 21.792Q76.884 22.182 76.078 22.182ZM75.688 21.012Q76.559 21.012 77.1245 20.453Q77.69 19.894 77.69 18.854V18.737000000000002Q77.69 17.71 77.131 17.151Q76.572 16.592 75.688 16.592Q74.83 16.592 74.2645 17.151Q73.69900000000001 17.71 73.69900000000001 18.737000000000002V18.854Q73.69900000000001 19.894 74.2645 20.453Q74.83 21.012 75.688 21.012Z"/></svg>
