<svg xmlns="http://www.w3.org/2000/svg" width="105" height="34" viewBox="0 0 105 34" role="img" aria-labelledby="title"><title id="title">Postman</title><rect x=".5" y=".5" width="104" height="33" rx="6" fill="#141416" stroke="#303035"/><g transform="translate(11 8) scale(.75)"><g fill="#d2ff00"><path d="M13.527.099C6.955-.744.942 3.9.099 10.473c-.843 6.572 3.8 12.584 10.373 13.428 6.573.843 12.587-3.801 13.428-10.374C24.744 6.955 20.101.943 13.527.099zm2.471 7.485a.855.855 0 0 0-.593.25l-4.453 4.453-.307-.307-.643-.643c4.389-4.376 5.18-4.418 5.996-3.753zm-4.863 4.861l4.44-4.44a.62.62 0 1 1 .847.903l-4.699 4.125-.588-.588zm.33.694l-1.1.238a.06.06 0 0 1-.067-.032.06.06 0 0 1 .01-.073l.645-.645.512.512zm-2.803-.459l1.172-1.172.879.878-1.979.426a.074.074 0 0 1-.085-.039.072.072 0 0 1 .013-.093zm-3.646 6.058a.076.076 0 0 1-.069-.083.077.077 0 0 1 .022-.046h.002l.946-.946 1.222 1.222-2.123-.147zm2.425-1.256a.228.228 0 0 0-.117.256l.203.865a.125.125 0 0 1-.211.117h-.003l-.934-.934-.294-.295 3.762-3.758 1.82-.393.874.874c-1.255 1.102-2.971 2.201-5.1 3.268zm5.279-3.428h-.002l-.839-.839 4.699-4.125a.952.952 0 0 0 .119-.127c-.148 1.345-2.029 3.245-3.977 5.091zm3.657-6.46l-.003-.002a1.822 1.822 0 0 1 2.459-2.684l-1.61 1.613a.119.119 0 0 0 0 .169l1.247 1.247a1.817 1.817 0 0 1-2.093-.343zm2.578 0a1.714 1.714 0 0 1-.271.218h-.001l-1.207-1.207 1.533-1.533c.661.72.637 1.832-.054 2.522zM18.855 6.05a.143.143 0 0 0-.053.157.416.416 0 0 1-.053.45.14.14 0 0 0 .023.197.141.141 0 0 0 .084.03.14.14 0 0 0 .106-.05.691.691 0 0 0 .087-.751.138.138 0 0 0-.194-.033z"/></g></g><path fill="#f4f4f2" d="M37.949 22.0V12.9H41.563Q42.394999999999996 12.9 43.0515 13.2315Q43.708 13.563 44.0785 14.1675Q44.449 14.772 44.449 15.617V15.786000000000001Q44.449 16.631 44.0655 17.242Q43.682 17.853 43.032 18.178Q42.382 18.503 41.563 18.503H39.353V22.0ZM39.353 17.229H41.42Q42.161 17.229 42.603 16.839Q43.045 16.448999999999998 43.045 15.773V15.643Q43.045 14.954 42.603 14.564Q42.161 14.174 41.42 14.174H39.353ZM48.83 22.182Q47.867999999999995 22.182 47.12049999999999 21.7855Q46.373 21.389 45.944 20.648Q45.515 19.907 45.515 18.893V18.698Q45.515 17.684 45.944 16.9495Q46.373 16.215 47.12049999999999 15.812000000000001Q47.867999999999995 15.409 48.83 15.409Q49.792 15.409 50.546 15.812000000000001Q51.3 16.215 51.729 16.9495Q52.158 17.684 52.158 18.698V18.893Q52.158 19.907 51.729 20.648Q51.3 21.389 50.546 21.7855Q49.792 22.182 48.83 22.182ZM48.83 20.986Q49.714 20.986 50.26649999999999 20.4205Q50.818999999999996 19.855 50.818999999999996 18.854V18.737000000000002Q50.818999999999996 17.736 50.272999999999996 17.1705Q49.727 16.605 48.83 16.605Q47.958999999999996 16.605 47.406499999999994 17.1705Q46.854 17.736 46.854 18.737000000000002V18.854Q46.854 19.855 47.406499999999994 20.4205Q47.958999999999996 20.986 48.83 20.986ZM56.44799999999999 22.182Q55.226 22.182 54.42 21.636Q53.614 21.09 53.431999999999995 19.985L54.67999999999999 19.686Q54.784 20.219 55.031 20.531Q55.278 20.843 55.6485 20.973Q56.019 21.103 56.44799999999999 21.103Q57.084999999999994 21.103 57.42949999999999 20.856Q57.773999999999994 20.609 57.773999999999994 20.219Q57.773999999999994 19.829 57.449 19.647Q57.123999999999995 19.465 56.486999999999995 19.348L56.044999999999995 19.27Q55.394999999999996 19.153 54.861999999999995 18.932Q54.32899999999999 18.711 54.016999999999996 18.320999999999998Q53.705 17.931 53.705 17.32Q53.705 16.41 54.381 15.909500000000001Q55.056999999999995 15.409 56.175 15.409Q57.254 15.409 57.9495 15.8965Q58.644999999999996 16.384 58.852999999999994 17.216L57.605 17.567Q57.488 16.982 57.111 16.741500000000002Q56.733999999999995 16.501 56.175 16.501Q55.629 16.501 55.31699999999999 16.7025Q55.004999999999995 16.904 55.004999999999995 17.268Q55.004999999999995 17.658 55.3105 17.84Q55.616 18.022 56.135999999999996 18.113L56.590999999999994 18.191Q57.279999999999994 18.308 57.85199999999999 18.516Q58.42399999999999 18.724 58.7555 19.114Q59.086999999999996 19.504 59.086999999999996 20.154Q59.086999999999996 21.116 58.372 21.649Q57.657 22.182 56.44799999999999 22.182ZM63.05199999999999 22.0Q62.46699999999999 22.0 62.12249999999999 21.649Q61.77799999999999 21.298000000000002 61.77799999999999 20.713V16.722H60.00999999999999V15.591000000000001H61.77799999999999V13.472H63.11699999999999V15.591000000000001H65.02799999999999V16.722H63.11699999999999V20.479Q63.11699999999999 20.869 63.480999999999995 20.869H64.82V22.0ZM66.60099999999998 22.0V15.591000000000001H67.91399999999999V16.345H68.12199999999999Q68.30399999999999 16.007 68.707 15.747Q69.10999999999999 15.487 69.79899999999998 15.487Q70.51399999999998 15.487 70.94949999999999 15.779499999999999Q71.38499999999999 16.072 71.60599999999998 16.527H71.81399999999998Q72.03499999999998 16.085 72.45749999999998 15.786000000000001Q72.87999999999998 15.487 73.65999999999998 15.487Q74.28399999999999 15.487 74.76499999999999 15.7405Q75.24599999999998 15.994 75.53199999999998 16.494500000000002Q75.81799999999998 16.995 75.81799999999998 17.736V22.0H74.47899999999998V17.84Q74.47899999999998 17.255 74.16049999999998 16.936500000000002Q73.84199999999998 16.618000000000002 73.25699999999999 16.618000000000002Q72.63299999999998 16.618000000000002 72.25599999999999 17.021Q71.87899999999999 17.424 71.87899999999999 18.178V22.0H70.53999999999999V17.84Q70.53999999999999 17.255 70.22149999999999 16.936500000000002Q69.90299999999999 16.618000000000002 69.31799999999998 16.618000000000002Q68.69399999999999 16.618000000000002 68.31699999999998 17.021Q67.93999999999998 17.424 67.93999999999998 18.178V22.0ZM79.731 22.182Q79.04199999999999 22.182 78.5025 21.948Q77.963 21.714 77.6445 21.259Q77.326 20.804 77.326 20.154Q77.326 19.491 77.6445 19.055500000000002Q77.963 18.62 78.51549999999999 18.399Q79.06799999999998 18.178 79.77 18.178H81.71999999999998V17.762Q81.71999999999998 17.203 81.38199999999999 16.865000000000002Q81.044 16.527 80.34199999999998 16.527Q79.65299999999999 16.527 79.28899999999999 16.852Q78.925 17.177 78.80799999999999 17.697L77.55999999999999 17.294Q77.716 16.774 78.06049999999999 16.3515Q78.40499999999999 15.929 78.97699999999999 15.669Q79.54899999999999 15.409 80.35499999999999 15.409Q81.603 15.409 82.31799999999998 16.046Q83.03299999999999 16.683 83.03299999999999 17.853V20.492Q83.03299999999999 20.882 83.39699999999999 20.882H83.94299999999998V22.0H82.942Q82.487 22.0 82.201 21.766Q81.91499999999999 21.532 81.91499999999999 21.129V21.09H81.71999999999998Q81.61599999999999 21.285 81.40799999999999 21.545Q81.19999999999999 21.805 80.797 21.993499999999997Q80.39399999999999 22.182 79.731 22.182ZM79.92599999999999 21.077Q80.73199999999999 21.077 81.22599999999998 20.6155Q81.71999999999998 20.154 81.71999999999998 19.348V19.218H79.84799999999998Q79.315 19.218 78.99 19.445500000000003Q78.66499999999999 19.673000000000002 78.66499999999999 20.115Q78.66499999999999 20.557 79.00299999999999 20.817Q79.341 21.077 79.92599999999999 21.077ZM85.243 22.0V15.591000000000001H86.556V16.553H86.764Q86.946 16.163 87.41399999999999 15.825Q87.88199999999999 15.487 88.80499999999999 15.487Q89.533 15.487 90.0985 15.812000000000001Q90.664 16.137 90.989 16.7285Q91.314 17.32 91.314 18.152V22.0H89.975V18.256Q89.975 17.424 89.559 17.0275Q89.143 16.631 88.41499999999999 16.631Q87.583 16.631 87.0825 17.177Q86.582 17.723 86.582 18.763V22.0Z"/></svg>
